<svg width="943" height="423" viewBox="0 0 943 423" fill="none" xmlns="http://www.w3.org/2000/svg">
<path d="M0 357V136.5L81.5 357H0Z" fill="#FFD600"/>
<path d="M133.5 273L32 0H236L133.5 273Z" fill="#FFD600"/>
<path d="M358 0H311.5L177 358H358V0Z" fill="#FFD600"/>
<path d="M455.38 361.12C440.82 361.12 426.867 359.213 413.52 355.4C400.173 351.413 389.427 346.3 381.28 340.06L395.58 308.34C403.38 313.887 412.567 318.48 423.14 322.12C433.887 325.587 444.72 327.32 455.64 327.32C463.96 327.32 470.633 326.54 475.66 324.98C480.86 323.247 484.673 320.907 487.1 317.96C489.527 315.013 490.74 311.633 490.74 307.82C490.74 302.967 488.833 299.153 485.02 296.38C481.207 293.433 476.18 291.093 469.94 289.36C463.7 287.453 456.767 285.72 449.14 284.16C441.687 282.427 434.147 280.347 426.52 277.92C419.067 275.493 412.22 272.373 405.98 268.56C399.74 264.747 394.627 259.72 390.64 253.48C386.827 247.24 384.92 239.267 384.92 229.56C384.92 219.16 387.693 209.713 393.24 201.22C398.96 192.553 407.453 185.707 418.72 180.68C430.16 175.48 444.46 172.88 461.62 172.88C473.06 172.88 484.327 174.267 495.42 177.04C506.513 179.64 516.307 183.627 524.8 189L511.8 220.98C503.307 216.127 494.813 212.573 486.32 210.32C477.827 207.893 469.507 206.68 461.36 206.68C453.213 206.68 446.54 207.633 441.34 209.54C436.14 211.447 432.413 213.96 430.16 217.08C427.907 220.027 426.78 223.493 426.78 227.48C426.78 232.16 428.687 235.973 432.5 238.92C436.313 241.693 441.34 243.947 447.58 245.68C453.82 247.413 460.667 249.147 468.12 250.88C475.747 252.613 483.287 254.607 490.74 256.86C498.367 259.113 505.3 262.147 511.54 265.96C517.78 269.773 522.807 274.8 526.62 281.04C530.607 287.28 532.6 295.167 532.6 304.7C532.6 314.927 529.74 324.287 524.02 332.78C518.3 341.273 509.72 348.12 498.28 353.32C487.013 358.52 472.713 361.12 455.38 361.12ZM642.241 361.12C616.414 361.12 596.221 353.927 581.661 339.54C567.101 325.153 559.821 304.613 559.821 277.92V176H601.941V276.36C601.941 293.693 605.494 306.173 612.601 313.8C619.707 321.427 629.674 325.24 642.501 325.24C655.327 325.24 665.294 321.427 672.401 313.8C679.507 306.173 683.061 293.693 683.061 276.36V176H724.661V277.92C724.661 304.613 717.381 325.153 702.821 339.54C688.261 353.927 668.067 361.12 642.241 361.12ZM738.555 358L819.675 176H861.275L942.655 358H898.455L831.895 197.32H848.535L781.715 358H738.555ZM779.115 319L790.295 287.02H883.895L895.335 319H779.115Z" fill="#FFD600"/>
<rect x="279" y="236" width="42" height="122" fill="#1E1E1E"/>
<rect width="42" height="41" transform="matrix(1 0 0 -1 279 218)" fill="#1E1E1E"/>
</svg>
